<svg height="512pt" viewBox="0 0 512 512" width="512pt" xmlns="http://www.w3.org/2000/svg"><path d="m511.976562 258.230469c-.5-23.585938-16.074218-43.855469-37.921874-50.835938-8.160157-20.347656-28.09375-34.277343-50.679688-34.277343-1.742188 0-3.46875.09375-5.175781.257812v-11.175781c0-89.4375-72.761719-162.199219-162.199219-162.199219s-162.199219 72.761719-162.199219 162.199219v11.175781c-1.707031-.164062-3.433593-.257812-5.175781-.257812-22.585938 0-42.519531 13.929687-50.679688 34.277343-21.847656 6.980469-37.421874 27.25-37.9218745 50.835938l-.0234375 87.4375h49v166.332031h414v-166.332031h49zm-78.976562 223.769531h-354v-29.667969h354zm-368.507812-259.03125c2.238281-11.5 12.390624-19.851562 24.132812-19.851562s21.894531 8.351562 24.132812 19.851562l2.085938 10.703125 10.828125 1.316406c11.914063 1.449219 20.960937 11.339844 21.523437 23.238281h-117.140624c.558593-11.898437 9.609374-21.789062 21.523437-23.238281l10.828125-1.316406zm383.015624 0 2.085938 10.703125 10.828125 1.316406c11.914063 1.453125 20.960937 11.339844 21.523437 23.242188h-117.140624c.5625-11.898438 9.613281-21.789063 21.523437-23.242188l10.828125-1.316406 2.085938-10.703125c2.242187-11.5 12.390624-19.847656 24.132812-19.847656 11.742188-.003906 21.894531 8.347656 24.132812 19.847656zm-112.757812 199.367188h-63.75v-151.335938h63.75zm-93.75 0h-63.75v-151.335938h63.75zm-211-134.105469h117.25v27.4375h-117.25zm334.75 27.4375v-27.4375h117.25v27.4375zm23.449219-153.46875v23.796875c-6.746094 5.6875-12.132813 12.992187-15.503907 21.398437-16.273437 5.199219-29.066406 17.78125-34.746093 33.605469h-66.949219v-210.144531c65.859375 7.472656 117.199219 63.523437 117.199219 131.34375zm-264.398438 0c0-67.820313 51.339844-123.871094 117.199219-131.34375v210.144531h-66.949219c-5.679687-15.824219-18.46875-28.40625-34.746093-33.605469-3.371094-8.40625-8.757813-15.710937-15.503907-21.398437zm-44.800781 183.46875h68.25v76.667969h-68.25zm354 76.667969h-68.25v-76.667969h68.25zm0 0"/></svg>