<svg id="Capa_1" enable-background="new 0 0 510 510" height="512" viewBox="0 0 510 510" width="512" xmlns="http://www.w3.org/2000/svg"><g><path d="m280.905 265.296c16.781-17.769 19.095-32.272 19.095-45.3 0-28.972-23.131-50-55-50-28.038 0-50 22.119-50 50.355h30c0-11.604 8.598-20.355 20-20.355 15.421 0 25 7.663 25 20 0 6.439 0 13.097-10.766 24.553l-64.841 64.841.606.606v30h105v-30h-63.787l44.394-44.394z"/><path d="m405 339.997h30v-70h30v-30h-30v-70h-30v70h-34.517c-5.879 0-10.483-4.393-10.483-10v-60h-30v60c0 22.056 18.161 40 40.483 40h34.517z"/><path d="m165 369.967h-15c-11.028 0-20-8.972-20-20v-189.941c0-11.028 8.972-20 20-20h15v-.029h60v-130h-90v.774c-34.41 3.404-66.295 18.407-91.063 43.169-28.333 28.327-43.937 65.992-43.937 106.057v190c0 40.064 15.604 77.729 43.937 106.057 24.767 24.762 56.664 39.794 91.063 43.181v.77l90-.043v-130l-60 .029zm30-259.97h-30v-70h30zm-129.852 324.841c-22.666-22.661-35.148-52.791-35.148-84.841v-190c0-32.051 12.482-62.181 35.148-84.842 19.092-19.088 43.48-30.949 69.852-34.21v71.379c-20.265 6.386-35 25.355-35 47.702v189.941c0 22.347 14.735 41.316 35 47.702v71.379c-26.37-3.262-50.761-15.124-69.852-34.21zm129.852-34.863v69.999l-30 .015v-69.999z"/><path d="m400 59.997v30h80v80h30v-110z"/><path d="m480 419.997h-80v30h110v-110h-30z"/></g></svg>