<svg id="Capa_1" enable-background="new 0 0 511.972 511.972" height="512" viewBox="0 0 511.972 511.972" width="512" xmlns="http://www.w3.org/2000/svg"><g><path d="m433.797 170.603 6.698-29.242c-30.026-6.877-61.915-7.055-92.222-.52l6.326 29.326c26.042-5.617 53.428-5.466 79.198.436z"/><path d="m481.82 79.997c-46.648-51.911-128.255-52.082-175.056-.002-22.291 24.807-33.038 58.055-29.485 91.22l23.069 215.326c5.156 48.134 45.542 84.432 93.94 84.432 48.402 0 88.791-36.298 93.947-84.432l23.069-215.326c3.554-33.164-7.193-66.412-29.484-91.218zm-87.532-9.024c52.095 0 92.735 45.252 87.188 97.047l-5.058 47.21c-51.645-22.518-112.395-22.847-164.346-.876l-4.964-46.334c-5.548-51.792 35.09-97.047 87.18-97.047zm64.119 312.373c-3.52 32.853-31.085 57.627-64.118 57.627-33.03 0-60.592-24.774-64.111-57.627l-14.74-137.582c49.04-24.006 108.96-23.627 157.602 1.007z"/><path d="m71.664 140.842 6.329 29.324c26.023-5.616 53.41-5.465 79.199.438l6.692-29.244c-30.041-6.875-61.93-7.054-92.22-.518z"/><path d="m30.152 79.997c-22.29 24.806-33.037 58.054-29.485 91.218l23.069 215.326c5.156 48.134 45.545 84.432 93.947 84.432 48.399 0 88.785-36.298 93.94-84.432l23.069-215.326c3.553-33.165-7.194-66.413-29.485-91.22-46.655-51.918-128.263-52.071-175.055.002zm151.643 303.349c-3.519 32.853-31.081 57.627-64.111 57.627-33.034 0-60.599-24.774-64.118-57.627l-14.74-137.58c49.036-24.007 108.956-23.627 157.602 1.004zm23.07-215.326-5.058 47.211c-51.648-22.518-112.398-22.848-164.346-.877l-4.964-46.334c-5.548-51.801 35.097-97.047 87.188-97.047 24.838 0 48.606 10.598 65.21 29.074 16.609 18.485 24.617 43.26 21.97 67.973z"/></g></svg>